<?xml version="1.0" encoding="iso-8859-1"?>
<!-- Generator: Adobe Illustrator 19.0.0, SVG Export Plug-In . SVG Version: 6.00 Build 0)  -->
<svg version="1.1" id="Capa_1" xmlns="http://www.w3.org/2000/svg" xmlns:xlink="http://www.w3.org/1999/xlink" x="0px" y="0px"
	 viewBox="0 0 512 512" style="enable-background:new 0 0 512 512;" xml:space="preserve">
<g>
	<g>
		<polygon points="266.941,181.6 231.181,181.6 188.941,244.96 146.461,181.6 110.461,181.6 171.182,268 112.382,352 148.382,352 
			188.941,291.04 229.261,352 265.021,352 206.221,268 		"/>
	</g>
</g>
<g>
	<g>
		<path d="M0,0v512h512V0H0z M482,482H30V30h452V482z"/>
	</g>
</g>
<g>
	<g>
		<path d="M396.779,315.04V176.8h-32.16v71.52c-4.162-7.2-17.217-24.24-42.479-24.24c-29.821,0-56.16,25.92-56.16,65.04
			c0,34.505,22.839,65.28,59.761,65.28c25.203,0,39.037-16.237,43.678-24.24c0,0-2.102,23.52,21.119,23.52
			c3.518,0,8.078-0.562,13.681-1.68v-27.36C401.497,324.482,396.779,318.4,396.779,315.04z M364.62,305.92
			c-1.121,3.041-10.3,21.12-30.479,21.12c-21.322,0-34.8-18.873-34.8-37.2c0-16.673,10.979-38.4,32.88-38.4
			c19.598,0,31.117,20.962,32.399,24.48V305.92z"/>
	</g>
</g>
<g>
</g>
<g>
</g>
<g>
</g>
<g>
</g>
<g>
</g>
<g>
</g>
<g>
</g>
<g>
</g>
<g>
</g>
<g>
</g>
<g>
</g>
<g>
</g>
<g>
</g>
<g>
</g>
<g>
</g>
</svg>
